<svg id="Calque_2" data-name="Calque 2" xmlns="http://www.w3.org/2000/svg" xmlns:xlink="http://www.w3.org/1999/xlink" viewBox="0 0 2024 727.28"><defs><style>.cls-1,.cls-10,.cls-11,.cls-12,.cls-13,.cls-14,.cls-15,.cls-16,.cls-17,.cls-18,.cls-19,.cls-20,.cls-21,.cls-22,.cls-23,.cls-24,.cls-25,.cls-26,.cls-27,.cls-28,.cls-29,.cls-30,.cls-31,.cls-32,.cls-33,.cls-34,.cls-35,.cls-36,.cls-37,.cls-38,.cls-39,.cls-40,.cls-41,.cls-42,.cls-43,.cls-44,.cls-45,.cls-46,.cls-47,.cls-48,.cls-49,.cls-5,.cls-50,.cls-51,.cls-52,.cls-53,.cls-54,.cls-55,.cls-56,.cls-57,.cls-58,.cls-59,.cls-60,.cls-61,.cls-62,.cls-63,.cls-64,.cls-65,.cls-66,.cls-67,.cls-68,.cls-69,.cls-70,.cls-71,.cls-72,.cls-73,.cls-74,.cls-75,.cls-76,.cls-8,.cls-9{fill:none;}.cls-2{fill:#5e6aad;}.cls-3{fill:#b388bd;}.cls-4{fill:#213265;}.cls-10,.cls-11,.cls-12,.cls-13,.cls-14,.cls-15,.cls-16,.cls-17,.cls-18,.cls-19,.cls-20,.cls-21,.cls-22,.cls-23,.cls-24,.cls-25,.cls-26,.cls-27,.cls-28,.cls-29,.cls-30,.cls-31,.cls-32,.cls-33,.cls-34,.cls-35,.cls-36,.cls-37,.cls-38,.cls-39,.cls-40,.cls-41,.cls-42,.cls-43,.cls-44,.cls-45,.cls-46,.cls-47,.cls-48,.cls-49,.cls-5,.cls-50,.cls-51,.cls-52,.cls-53,.cls-54,.cls-55,.cls-56,.cls-57,.cls-58,.cls-59,.cls-60,.cls-61,.cls-62,.cls-63,.cls-64,.cls-65,.cls-66,.cls-67,.cls-68,.cls-69,.cls-70,.cls-71,.cls-72,.cls-73,.cls-8,.cls-9{stroke:#5e69ad;}.cls-5{stroke-width:2px;}.cls-6{clip-path:url(#clip-path);}.cls-7{fill:#5e69ad;}.cls-8{stroke-width:19px;}.cls-10,.cls-11,.cls-12,.cls-13,.cls-14,.cls-15,.cls-16,.cls-17,.cls-18,.cls-19,.cls-20,.cls-21,.cls-22,.cls-23,.cls-24,.cls-25,.cls-26,.cls-27,.cls-28,.cls-29,.cls-30,.cls-31,.cls-32,.cls-33,.cls-34,.cls-35,.cls-36,.cls-37,.cls-38,.cls-39,.cls-40,.cls-41,.cls-42,.cls-43,.cls-44,.cls-45,.cls-46,.cls-47,.cls-48,.cls-49,.cls-50,.cls-51,.cls-52,.cls-53,.cls-54,.cls-55,.cls-56,.cls-57,.cls-58,.cls-59,.cls-60,.cls-61,.cls-62,.cls-63,.cls-64,.cls-65,.cls-66,.cls-67,.cls-68,.cls-69,.cls-70,.cls-71,.cls-72,.cls-73,.cls-9{stroke-linecap:round;stroke-linejoin:round;stroke-width:6px;}.cls-9{stroke-dasharray:0 11.32;}.cls-10{stroke-dasharray:0 11.95;}.cls-12{stroke-dasharray:0 12.83;}.cls-13{stroke-dasharray:0 11.27;}.cls-14{stroke-dasharray:0 13.62;}.cls-15{stroke-dasharray:0 12.39;}.cls-16{stroke-dasharray:0 11.27;}.cls-17{stroke-dasharray:0 12.25;}.cls-18{stroke-dasharray:0 13.81;}.cls-19{stroke-dasharray:0 12.48;}.cls-20{stroke-dasharray:0 12.79;}.cls-21{stroke-dasharray:0 12.51;}.cls-22{stroke-dasharray:0 11.5;}.cls-23{stroke-dasharray:0 12.87;}.cls-24{stroke-dasharray:0 10.04;}.cls-25{stroke-dasharray:0 11.32;}.cls-26{stroke-dasharray:0 14.97;}.cls-27{stroke-dasharray:0 11.51;}.cls-28{stroke-dasharray:0 10.94;}.cls-29{stroke-dasharray:0 10.21;}.cls-30{stroke-dasharray:0 11.65;}.cls-31{stroke-dasharray:0 13.01;}.cls-32{stroke-dasharray:0 10.39;}.cls-33{stroke-dasharray:0 12.7;}.cls-34{stroke-dasharray:0 12.06;}.cls-35{stroke-dasharray:0 12.58;}.cls-36{stroke-dasharray:0 11.24;}.cls-37{stroke-dasharray:0 11.66;}.cls-38{stroke-dasharray:0 12.22;}.cls-39{stroke-dasharray:0 13.89;}.cls-40{stroke-dasharray:0 12.2;}.cls-41{stroke-dasharray:0 10.25;}.cls-42{stroke-dasharray:0 17.19;}.cls-43{stroke-dasharray:0 9.41;}.cls-44{stroke-dasharray:0 10.74;}.cls-45{stroke-dasharray:0 12.33;}.cls-46{stroke-dasharray:0 12.82;}.cls-47{stroke-dasharray:0 11.81;}.cls-48{stroke-dasharray:0 12.12;}.cls-49{stroke-dasharray:0 12.01;}.cls-50{stroke-dasharray:0 11.62;}.cls-51{stroke-dasharray:0 11.69;}.cls-52{stroke-dasharray:0 12.99;}.cls-53{stroke-dasharray:0 13.1;}.cls-54{stroke-dasharray:0 11.26;}.cls-55{stroke-dasharray:0 14.19;}.cls-56{stroke-dasharray:0 12.42;}.cls-57{stroke-dasharray:0 13.28;}.cls-58{stroke-dasharray:0 11.38;}.cls-59{stroke-dasharray:0 13.63;}.cls-60{stroke-dasharray:0 13.41;}.cls-61{stroke-dasharray:0 11.03;}.cls-62{stroke-dasharray:0 10.85;}.cls-63{stroke-dasharray:0 12.27;}.cls-64{stroke-dasharray:0 11.5;}.cls-65{stroke-dasharray:0 10.91;}.cls-66{stroke-dasharray:0 11.52;}.cls-67{stroke-dasharray:0 10.98;}.cls-68{stroke-dasharray:0 12.31;}.cls-69{stroke-dasharray:0 10.66;}.cls-70{stroke-dasharray:0 11.31;}.cls-71{stroke-dasharray:0 13.47;}.cls-72{stroke-dasharray:0 11.65;}.cls-73{stroke-dasharray:0 12.09;}.cls-74{stroke:#d6e6ff;stroke-width:30px;}.cls-75{stroke:#0c1b46;stroke-width:23px;}.cls-76{stroke:#1b3065;stroke-width:21px;}.cls-77{clip-path:url(#clip-path-45);}.cls-78{fill:url(#Dégradé_sans_nom_3);}.cls-79{clip-path:url(#clip-path-47);}.cls-80{fill:url(#Dégradé_sans_nom_2);}.cls-81{fill:#0c1b46;}</style><clipPath id="clip-path" transform="translate(505 -451.83)"><rect class="cls-1" x="30" y="581.09" width="960.64" height="370.91"/></clipPath><clipPath id="clip-path-45" transform="translate(505 -451.83)"><path class="cls-1" d="M596.68,740.32q52.82,12.88,84.45,25.78L689,746.76q-35.16-13.11-85-23.43Zm-264-47a271.28,271.28,0,0,1,18.09,34.21l15.89-8.72a238.17,238.17,0,0,0-18.24-33Zm270.59,7.33a605.65,605.65,0,0,1,73.9,23.07l6.89-19.63a589.05,589.05,0,0,0-74.64-20.88ZM390.76,733.76Q376.18,748.08,350,754.09l10.32,17.58q33.33-10,48.78-29.92t18.31-58.49l-18.89-1.61q-3.22,37.8-17.8,52.11m-29.59-47.93a154.64,154.64,0,0,1,18.9,32.59l15-8.71q-10.32-21.84-18.6-31.21Zm241.59-23.07a642.54,642.54,0,0,1,74,19.63l6.16-19.34a558.7,558.7,0,0,0-74.42-18ZM560,661.55a6.81,6.81,0,0,1-2.23-5.31,7.09,7.09,0,0,1,2.12-5.35,6.94,6.94,0,0,1,5-2,7.82,7.82,0,0,1,5.13,1.9,6.63,6.63,0,0,1,2.27,5.35q0,7.47-7.25,7.47a7.31,7.31,0,0,1-5-2m-7.43-17.8A17.93,17.93,0,0,0,547.33,657a22.15,22.15,0,0,0,.44,4.32H448v19.41h84q-5.34,29.37-21.42,45.78t-53.28,27l9.45,19q42.33-12.75,62.11-35.2T555,671a17.81,17.81,0,0,0,22.93-2.12,17.27,17.27,0,0,0,5-12.16,18.29,18.29,0,0,0-5-12.6,16.13,16.13,0,0,0-12.49-5.57,17.49,17.49,0,0,0-12.81,5.24"/></clipPath><linearGradient id="Dégradé_sans_nom_3" x1="0.63" y1="999.89" x2="1.63" y2="999.89" gradientTransform="matrix(0, 134.03, 134.03, 0, -133002.2, 101.65)" gradientUnits="userSpaceOnUse"><stop offset="0" stop-color="#966da9"/><stop offset="1" stop-color="#e5b2a7"/></linearGradient><clipPath id="clip-path-47" transform="translate(505 -451.83)"><path class="cls-1" d="M757.53,679.17c.15,17,.06,80.82-22,95.81-12.54,8.88-56.82,9.18-56.82,9.18H382.59l-24,21.36H683.39c68.7,0,87.36-2.39,94.71-81a427.89,427.89,0,0,0,1.8-45.32ZM701.63,650v20.64H809.32a168.48,168.48,0,0,1-28.47,28.94l15,16.21q21-15.9,41.2-45.15V650ZM254.29,637.26v27.36H210.41v20.71h64.75q-26,27.45-79.86,49l11.31,19.29a251.18,251.18,0,0,0,47.84-23.8v162.9h22.14V722.28c16.38,9.68,36.58,22.37,48.3,30.9l12.42-20.09c-13.32-8.36-35.1-20.23-50.59-28a123.39,123.39,0,0,0,17.7-19.76V664.62h-28V637.26Z"/></clipPath><linearGradient id="Dégradé_sans_nom_2" x1="0.81" y1="999.86" x2="1.81" y2="999.86" gradientTransform="matrix(0, 255.49, 255.49, 0, -254433.02, -21.06)" gradientUnits="userSpaceOnUse"><stop offset="0" stop-color="#966da9"/><stop offset="0.27" stop-color="#b588a8"/><stop offset="0.55" stop-color="#d09fa8"/><stop offset="0.8" stop-color="#dfada7"/><stop offset="1" stop-color="#e5b2a7"/></linearGradient></defs><title>bottom</title><polygon class="cls-2" points="523.63 30.24 0 553.86 0 727.28 2024 727.28 2024 553.86 1500.38 30.24 523.63 30.24"/><polygon class="cls-3" points="602.17 0 52.86 559.75 52.86 727.28 1971.14 727.28 1971.14 559.75 1421.84 0 602.17 0"/><polygon class="cls-4" points="577.42 107.01 111.47 572.96 111.47 727.28 1912.53 727.28 1912.53 572.96 1446.59 107.01 577.42 107.01"/><polyline class="cls-5" points="1017.93 298.63 984.95 298.63 979.84 293.52"/><g class="cls-6"><circle class="cls-5" cx="977.01" cy="290.7" r="4"/></g><polyline class="cls-5" points="1020.1 293.88 1011.66 285.44 997.77 285.44"/><g class="cls-6"><circle class="cls-5" cx="993.77" cy="285.44" r="4"/></g><polyline class="cls-5" points="1019.25 303.3 1002.66 303.3 994.59 311.38 980.91 311.38"/><g class="cls-6"><circle class="cls-5" cx="976.91" cy="311.38" r="4"/></g><polyline class="cls-5" points="1021.51 305.14 1014.14 312.51 1009.38 312.51"/><g class="cls-6"><circle class="cls-5" cx="1005.38" cy="312.51" r="4"/></g><polyline class="cls-5" points="1023.22 305.99 1023.22 317.19 1011.45 328.95 1001.81 328.95 997.7 324.84 992.25 324.84"/><g class="cls-6"><circle class="cls-5" cx="988.25" cy="324.84" r="4"/></g><polyline class="cls-5" points="1027.08 307.61 1027.08 332.07 1020.1 339.06 1020.1 350.92 1022.43 353.26"/><g class="cls-6"><circle class="cls-5" cx="1025.26" cy="356.09" r="4"/></g><polyline class="cls-5" points="1031.25 304.79 1034.13 307.66 1034.13 339.75 1030.85 343.03"/><g class="cls-6"><circle class="cls-5" cx="1028.03" cy="345.86" r="4"/></g><polyline class="cls-5" points="1034.63 301.88 1046.25 313.5 1057.8 313.5 1070.41 326.12 1075.37 326.12"/><g class="cls-6"><circle class="cls-5" cx="1079.37" cy="326.12" r="4"/></g><polyline class="cls-5" points="1033.28 304.43 1041.21 312.37 1041.21 327.54 1050.13 336.46"/><g class="cls-6"><circle class="cls-5" cx="1052.96" cy="339.28" r="4"/></g><polyline class="cls-5" points="1036.31 299.63 1044.06 307.56 1053.15 307.61 1057.29 303.79"/><g class="cls-6"><circle class="cls-5" cx="1060.22" cy="301.08" r="4"/></g><polyline class="cls-5" points="1034.63 294.23 1074.24 294.23 1076.44 296.43"/><g class="cls-6"><circle class="cls-5" cx="1079.27" cy="299.26" r="4"/></g><polyline class="cls-5" points="1032.92 292.24 1037.1 288.06 1078.07 288.06 1080.05 286.08"/><g class="cls-6"><circle class="cls-5" cx="1082.88" cy="283.25" r="4"/><path class="cls-5" d="M525.93,742v-11.9l6-6s25.74-.88,25.74,0,6.22-5.81,6.22-5.81" transform="translate(505 -451.83)"/><circle class="cls-5" cx="1071.56" cy="263.52" r="4"/></g><polyline class="cls-5" points="1027.23 290.83 1027.23 282.61 1019.6 274.98 1019.6 260.3 1027.73 252.17 1027.73 246.76"/><g class="cls-6"><circle class="cls-5" cx="1027.73" cy="242.76" r="4"/></g><polyline class="cls-5" points="1024.63 289.59 1016.13 281.08 1016.13 273.11 1010.03 267.01 1010.03 258.09 1013.72 254.4 1013.72 245.9 1011.45 243.63"/><g class="cls-6"><circle class="cls-5" cx="1008.62" cy="240.8" r="4"/></g><polyline class="cls-7" points="737.06 289.68 737.06 327.94 720.76 344.24 730.67 344.24 746.65 328.26 746.65 288.26"/><polygon class="cls-7" points="792.48 309.83 748.86 353.46 754.78 359.38 797.41 316.75 792.48 309.83"/><polyline class="cls-7" points="807.93 376.13 755.49 376.13 755.49 381.94 812.61 381.94"/><polyline class="cls-7" points="673.57 237.52 729.69 237.52 729.69 248.01 680.37 248.01"/><polygon class="cls-7" points="678.1 311.79 718.64 271.25 723.74 276.35 685.19 314.9 678.1 311.79"/><polyline class="cls-7" points="1080.48 219.51 1155.64 219.51 1184.14 248.01 1281.32 248.01 1308.36 275.05 1366.35 275.05 1401.32 240.09 1443.83 240.09 1443.83 247.28 1436.16 254.95 1413.13 254.95 1405.45 247.28 1362.81 289.92 1347.39 289.92 1338.65 281.17 1304.7 281.17 1295.06 290.81 1260.06 290.81 1229.38 260.14 1197.69 260.14 1188.14 269.69 1160.13 269.69 1139.58 249.14 1139.58 233.71 1122.57 233.71 1112.24 244.04"/><polyline class="cls-7" points="1070.84 206.76 1125.98 206.76 1141.61 191.13 1189.9 191.13 1213.32 214.56 1246.59 214.56 1257.22 203.93 1304.7 203.93 1338.72 237.94 1374.86 237.94 1395.41 217.39 1432.97 217.39 1432.97 204.64 1425.17 196.84 1385.49 196.84 1362.81 219.52 1346.32 219.52 1314.42 187.63 1299.03 187.63 1286.98 175.58 1262.41 175.58 1250.36 187.63 1239.5 187.63 1230.29 196.84 1215.41 196.84 1197.69 179.13 1182.1 179.13 1173.6 170.62 1152.34 170.62 1140.53 182.44 1119.74 182.44 1106.98 195.19 1086.43 195.19 1075.89 184.65 1052.66 184.65 1040.47 196.84"/><polyline class="cls-7" points="1119.74 269.69 1139.58 269.69 1153.47 283.58 1195.57 283.58 1204.1 275.05 1223.2 275.05 1259.88 311.72 1289.82 311.72 1320.29 342.19 1364.23 342.19 1384.07 322.35 1420.92 322.35 1448.56 349.98 1483.28 349.98 1483.28 359.38 1475.03 367.63 1452.81 367.63 1444.56 359.38 1428.72 359.38 1415.42 346.09 1396.83 346.09 1374.78 368.13 1334.98 368.13 1317.46 385.65 1272.81 385.65 1251.86 406.61 1205.49 406.61 1186.95 388.07 1186.95 371.17 1158.72 371.17 1143.1 386.79 1103.44 386.79 1084.6 367.94 1092.1 346.5 1107.69 346.5 1125.98 364.78 1145.96 364.78 1157.3 353.44 1186.95 353.44 1212.55 379.04 1260.06 379.04 1271.39 367.7 1292.65 367.7 1304.56 355.79 1316.04 355.79 1283.9 323.66 1262.41 323.66 1247.92 338.15 1218.95 338.15 1193.44 312.64 1150.92 312.64 1137.46 299.17 1122.58 299.17"/><polygon class="cls-7" points="815.3 223.38 862.73 223.38 874.61 235.25 908.56 235.25 918.13 225.68 947.96 225.68 947.96 233.3 924.72 233.3 913.98 244.04 870.01 244.04 857.25 231.28 821.82 231.28 815.3 223.38"/><polyline class="cls-7" points="836.28 268.73 866.89 268.73 877.41 258.21 946.54 258.21 941.73 267.42 883.9 267.85 870.58 281.17 845.35 281.17"/><polyline class="cls-7" points="856.12 290.81 932.09 290.81 932.09 303.28 856.12 303.28"/><polyline class="cls-7" points="856.12 376.13 884.46 376.13 898.07 362.53 932.09 362.53 941.44 353.17 945.41 353.17 945.41 346.09 940.59 346.09 930.39 356.29 894.39 356.29 881.91 368.76 849.6 368.76"/><polygon class="cls-7" points="857.25 334.61 871.71 320.15 937.19 320.15 940.87 327.87 874.83 327.87 861.43 341.27 857.25 334.61"/><g class="cls-6"><path class="cls-7" d="M520.81,836.76s68.42-24.54,68.42-87.88-64.06-63.34-64.06-63.34V655.3l59,19.91L600,695.87l15.87,17.88L621,748.88l-3.41,24.66L605.1,800.47l-19.84,17-21.54,13.39-23.25,11.45-16.44,3Z" transform="translate(505 -451.83)"/><path class="cls-7" d="M526.4,662.44S458,687,458,750.31s64.07,63.34,64.07,63.34v30.24l-59-19.91-15.88-20.66-15.87-17.87-5.1-35.14,3.4-24.66,12.47-26.93,19.84-17,21.55-13.4,23.24-11.44,16.44-3Z" transform="translate(505 -451.83)"/><circle class="cls-5" cx="522.19" cy="750.02" r="9" transform="translate(372.59 -339.55) rotate(-10.9)"/><path class="cls-7" d="M514.18,749.81s2.25,6.28,8.07,6.28,5.82-5.88,5.82-5.88h2.78L529,755.62l-1.9,1.46-1.64,1.46-3.23.47-2.26-.32-2.48-1.14L516,755.73l-1.23-2-1.05-2.13-.28-1.51Z" transform="translate(505 -451.83)"/><path class="cls-7" d="M530.2,750.29S528,744,522.12,744s-5.82,5.88-5.82,5.88h-2.78l1.83-5.41,1.9-1.46,1.65-1.45,3.22-.47,2.27.31,2.48,1.15,1.56,1.82,1.23,2,1.05,2.14L531,750Z" transform="translate(505 -451.83)"/></g><polygon class="cls-7" points="726.67 204.64 704.94 226.37 704.94 274.4 730.61 300.07 772.02 300.07 796.59 324.64 796.59 367.94 815.43 386.79 862.73 386.79 862.73 278.34 832.5 248.1 832.5 218.81 817 204.64 726.67 204.64"/><polygon class="cls-7" points="712.97 341.98 746.65 341.98 766.07 361.39 766.07 392.71 745.49 413.3 684.34 413.3 634.73 363.69 634.73 295.71 609.56 270.54 609.56 206.76 675.22 206.76 687.82 219.36 687.82 301.01 711.06 324.26 711.06 340.7 712.97 341.98"/><g class="cls-6"><circle class="cls-8" cx="1025.81" cy="297.05" r="96.41"/></g><line class="cls-9" x1="973.31" y1="204.14" x2="953.3" y2="184.13"/><line class="cls-10" x1="949.29" y1="168.17" x2="949.29" y2="150.24"/><path class="cls-11" d="M444.29,596.09h0m0,35.87h0m32,32h0" transform="translate(505 -451.83)"/><g class="cls-6"><path class="cls-7" d="M444.29,602.09a6,6,0,1,0-6-6,6,6,0,0,0,6,6" transform="translate(505 -451.83)"/></g><line class="cls-12" x1="830.75" y1="379.96" x2="817.14" y2="393.57"/><line class="cls-13" x1="812.61" y1="409.37" x2="812.61" y2="437.54"/><path class="cls-11" d="M307.61,895h0m0-45.07h0m27.21-27.22h0" transform="translate(505 -451.83)"/><g class="cls-6"><path class="cls-7" d="M307.61,901a6,6,0,1,0-6-6,6,6,0,0,0,6,6" transform="translate(505 -451.83)"/></g><line class="cls-14" x1="867.64" y1="387.65" x2="867.64" y2="394.46"/><path class="cls-11" d="M362.64,853.11h0m0-27.24h0" transform="translate(505 -451.83)"/><g class="cls-6"><path class="cls-7" d="M362.64,859.11a6,6,0,1,0-6-6,6,6,0,0,0,6,6" transform="translate(505 -451.83)"/></g><line class="cls-15" x1="889.94" y1="390.28" x2="889.94" y2="408.87"/><line class="cls-16" x1="881.97" y1="423.03" x2="877.99" y2="427.02"/><path class="cls-11" d="M369,882.84h0m15.94-15.94h0m0-37.17h0" transform="translate(505 -451.83)"/><g class="cls-6"><path class="cls-7" d="M369,888.84a6,6,0,1,0-6-6,6,6,0,0,0,6,6" transform="translate(505 -451.83)"/></g><line class="cls-17" x1="909.43" y1="374.63" x2="909.43" y2="393"/><line class="cls-18" x1="920.48" y1="407.41" x2="914.96" y2="403.26"/><path class="cls-11" d="M415.48,859.24h0M404.43,851h0m0-36.75h0" transform="translate(505 -451.83)"/><g class="cls-6"><path class="cls-7" d="M415.48,865.24a6,6,0,1,0-6-6,6,6,0,0,0,6,6" transform="translate(505 -451.83)"/></g><line class="cls-19" x1="714.95" y1="417.13" x2="714.95" y2="460.79"/><g class="cls-6"><line class="cls-20" x1="705.91" y1="476.08" x2="692.34" y2="489.64"/><path class="cls-11" d="M182.82,946h0M210,918.86h0m0-62.37h0" transform="translate(505 -451.83)"/><path class="cls-7" d="M182.82,952a6,6,0,1,0-6-6,6,6,0,0,0,6,6" transform="translate(505 -451.83)"/></g><line class="cls-21" x1="664.72" y1="383.28" x2="633.77" y2="414.23"/><path class="cls-11" d="M124.35,870.49h0m44.22-44.22h0" transform="translate(505 -451.83)"/><g class="cls-6"><path class="cls-7" d="M124.35,876.49a6,6,0,1,0-6-6,6,6,0,0,0,6,6" transform="translate(505 -451.83)"/></g><line class="cls-22" x1="649.5" y1="316.25" x2="597.77" y2="316.25"/><path class="cls-11" d="M87,768.09h0m69,0h0" transform="translate(505 -451.83)"/><g class="cls-6"><path class="cls-7" d="M87,774.09a6,6,0,1,0-6-6,6,6,0,0,0,6,6" transform="translate(505 -451.83)"/></g><line class="cls-23" x1="616.47" y1="233.71" x2="584.29" y2="233.71"/><line class="cls-24" x1="570.75" y1="226.61" x2="567.2" y2="223.06"/><g class="cls-6"><line class="cls-25" x1="552.32" y1="219.51" x2="546.66" y2="219.51"/><path class="cls-11" d="M36,671.34h0m22.65,0h0m14.2,14.2h0m51.5,0h0" transform="translate(505 -451.83)"/><path class="cls-7" d="M36,677.34a6,6,0,1,0-6-6,6,6,0,0,0,6,6" transform="translate(505 -451.83)"/></g><line class="cls-26" x1="638.32" y1="204.04" x2="638.32" y2="196.56"/><line class="cls-27" x1="630.19" y1="180.94" x2="617.98" y2="168.74"/><path class="cls-11" d="M108.91,616.5h0m24.41,24.41h0m0,29.93h0" transform="translate(505 -451.83)"/><g class="cls-6"><path class="cls-7" d="M108.91,622.5a6,6,0,1,0-6-6,6,6,0,0,0,6,6" transform="translate(505 -451.83)"/></g><line class="cls-28" x1="742.45" y1="208.07" x2="742.45" y2="169.78"/><path class="cls-11" d="M237.45,616.15h0m0,54.69h0" transform="translate(505 -451.83)"/><g class="cls-6"><path class="cls-7" d="M237.45,622.15a6,6,0,1,0-6-6,6,6,0,0,0,6,6" transform="translate(505 -451.83)"/></g><line class="cls-29" x1="788.43" y1="206.99" x2="788.43" y2="191.68"/><line class="cls-30" x1="796.66" y1="178.33" x2="800.78" y2="174.22"/><path class="cls-11" d="M299.9,621.93h0m-16.47,16.48h0m0,30.62h0" transform="translate(505 -451.83)"/><g class="cls-6"><path class="cls-7" d="M299.9,627.93a6,6,0,1,0-6-6,6,6,0,0,0,6,6" transform="translate(505 -451.83)"/></g><line class="cls-31" x1="823.46" y1="225.01" x2="846.46" y2="202"/><path class="cls-11" d="M346.06,649.24h0M309.26,686h0" transform="translate(505 -451.83)"/><g class="cls-6"><path class="cls-7" d="M346.06,655.24a6,6,0,1,0-6-6,6,6,0,0,0,6,6" transform="translate(505 -451.83)"/></g><line class="cls-32" x1="945.51" y1="219.26" x2="934.49" y2="208.25"/><path class="cls-11" d="M425.82,656.41h0m22,22h0" transform="translate(505 -451.83)"/><g class="cls-6"><path class="cls-7" d="M425.82,662.41a6,6,0,1,0-6-6,6,6,0,0,0,6,6" transform="translate(505 -451.83)"/></g><line class="cls-33" x1="1075.63" y1="401.04" x2="1089.11" y2="414.51"/><line class="cls-34" x1="1093.6" y1="431.07" x2="1093.6" y2="473.28"/><path class="cls-11" d="M588.6,931.15h0m0-60.31h0m-27-27h0" transform="translate(505 -451.83)"/><g class="cls-6"><path class="cls-7" d="M588.6,937.15a6,6,0,1,0-6-6,6,6,0,0,0,6,6" transform="translate(505 -451.83)"/></g><line class="cls-35" x1="979.88" y1="387.93" x2="957.65" y2="410.16"/><line class="cls-36" x1="953.2" y1="425.85" x2="953.2" y2="465.19"/><path class="cls-11" d="M448.2,922.65h0m0-56.21h0m35.57-35.57h0" transform="translate(505 -451.83)"/><g class="cls-6"><path class="cls-7" d="M448.2,928.64a6,6,0,1,0-6-6,6,6,0,0,0,6,6" transform="translate(505 -451.83)"/></g><line class="cls-37" x1="1027.33" y1="408.2" x2="1027.33" y2="437.34"/><path class="cls-11" d="M522.33,895h0m0-46.63h0" transform="translate(505 -451.83)"/><g class="cls-6"><path class="cls-7" d="M522.33,901a6,6,0,1,0-6-6,6,6,0,0,0,6,6" transform="translate(505 -451.83)"/></g><line class="cls-38" x1="1087.86" y1="180.33" x2="1100.82" y2="167.36"/><line class="cls-39" x1="1105.14" y1="149.15" x2="1105.14" y2="142.21"/><g class="cls-6"><path class="cls-11" d="M600.14,587.09h0m0,27.79h0M574.22,640.8h0" transform="translate(505 -451.83)"/><path class="cls-7" d="M600.14,593.09a6,6,0,1,0-6-6,6,6,0,0,0,6,6" transform="translate(505 -451.83)"/></g><line class="cls-40" x1="1049.05" y1="188.78" x2="1044.74" y2="184.47"/><line class="cls-41" x1="1040.43" y1="169.9" x2="1040.43" y2="154.52"/><path class="cls-11" d="M535.43,601.23h0m0,30.76h0m17.25,17.25h0" transform="translate(505 -451.83)"/><g class="cls-6"><path class="cls-7" d="M535.43,607.23a6,6,0,1,0-6-6,6,6,0,0,0,6,6" transform="translate(505 -451.83)"/></g><line class="cls-42" x1="1024.19" y1="185.25" x2="1018.11" y2="191.33"/><line class="cls-43" x1="1024.19" y1="175.84" x2="1024.19" y2="171.14"/><line class="cls-44" x1="1016.59" y1="158.84" x2="1005.2" y2="147.45"/><path class="cls-11" d="M496.4,595.48h0m22.79,22.79h0m0,18.81h0M507,649.24h0" transform="translate(505 -451.83)"/><g class="cls-6"><path class="cls-7" d="M496.4,601.48a6,6,0,1,0-6-6,6,6,0,0,0,6,6" transform="translate(505 -451.83)"/></g><line class="cls-45" x1="1250.84" y1="302.58" x2="1306.33" y2="302.58"/><line class="cls-46" x1="1321.56" y1="311.64" x2="1326.1" y2="316.18"/><line class="cls-47" x1="1342.45" y1="320.71" x2="1360.16" y2="320.71"/><line class="cls-48" x1="1374.64" y1="312.14" x2="1378.93" y2="307.85"/><line class="cls-49" x1="1395.23" y1="303.57" x2="1425.26" y2="303.57"/><line class="cls-48" x1="1439.84" y1="312.14" x2="1444.13" y2="316.42"/><line class="cls-50" x1="1460.04" y1="320.71" x2="1477.47" y2="320.71"/><path class="cls-11" d="M978.28,772.55h0m-34.87,0h0M926.27,755.4h0m-48,0h0m-17.15,17.15h0m-35.44,0h0M807.5,754.41h0m-74,0h0" transform="translate(505 -451.83)"/><g class="cls-6"><path class="cls-7" d="M978.28,778.55a6,6,0,1,0-6-6,6,6,0,0,0,6,6" transform="translate(505 -451.83)"/></g><line class="cls-51" x1="1127.3" y1="391.2" x2="1139.7" y2="403.61"/><line class="cls-52" x1="1143.83" y1="420.73" x2="1143.83" y2="440.22"/><path class="cls-11" d="M638.83,898.55h0m0-39h0M614,834.77h0" transform="translate(505 -451.83)"/><g class="cls-6"><path class="cls-7" d="M638.83,904.55a6,6,0,1,0-6-6,6,6,0,0,0,6,6" transform="translate(505 -451.83)"/></g><line class="cls-53" x1="1213.78" y1="406.65" x2="1213.78" y2="426.3"/><line class="cls-54" x1="1221.74" y1="440.82" x2="1225.73" y2="444.8"/><line class="cls-55" x1="1229.71" y1="462.97" x2="1229.71" y2="470.07"/><path class="cls-11" d="M724.71,929h0m0-28.4h0m-15.93-15.92h0m0-39.31h0" transform="translate(505 -451.83)"/><g class="cls-6"><path class="cls-7" d="M724.71,935a6,6,0,1,0-6-6,6,6,0,0,0,6,6" transform="translate(505 -451.83)"/></g><line class="cls-56" x1="1267.54" y1="397.82" x2="1348.27" y2="397.82"/><line class="cls-57" x1="1363.87" y1="388.43" x2="1368.57" y2="383.73"/><line class="cls-58" x1="1384.64" y1="379.04" x2="1424.45" y2="379.04"/><line class="cls-59" x1="1439.77" y1="388.68" x2="1444.59" y2="393.5"/><line class="cls-60" x1="1462.82" y1="398.32" x2="1482.94" y2="398.32"/><g class="cls-6"><path class="cls-11" d="M984.64,850.15h0m-40.23,0h0m-19.28-19.28h0m-56.87,0h0m-18.78,18.78h0m-99.35,0h0" transform="translate(505 -451.83)"/><path class="cls-7" d="M984.64,856.15a6,6,0,1,0-6-6,6,6,0,0,0,6,6" transform="translate(505 -451.83)"/></g><line class="cls-61" x1="1200.12" y1="176.03" x2="1219.63" y2="156.52"/><line class="cls-62" x1="1234.38" y1="152.62" x2="1272.35" y2="152.62"/><line class="cls-13" x1="1285.74" y1="160.59" x2="1297.69" y2="172.54"/><line class="cls-63" x1="1313.95" y1="176.52" x2="1344.63" y2="176.52"/><line class="cls-64" x1="1358.9" y1="168.39" x2="1371.1" y2="156.19"/><line class="cls-65" x1="1386.07" y1="152.12" x2="1413.34" y2="152.12"/><line class="cls-64" x1="1426.93" y1="160.26" x2="1439.13" y2="172.46"/><path class="cls-11" d="M938.2,628.36h0M913.8,604h0m-43.63,0h0m-24.41,24.4h0m-49.09,0h0m-23.9-23.9h0m-54.24,0h0m-31.21,31.21h0" transform="translate(505 -451.83)"/><g class="cls-6"><path class="cls-7" d="M938.2,634.36a6,6,0,1,0-6-6,6,6,0,0,0,6,6" transform="translate(505 -451.83)"/></g><line class="cls-66" x1="1421.98" y1="258.17" x2="1426.06" y2="262.25"/><line class="cls-67" x1="1441.12" y1="266.32" x2="1468.58" y2="266.32"/><path class="cls-11" d="M969.07,718.16h0m-43.94,0h0m-16.3-16.3h0" transform="translate(505 -451.83)"/><g class="cls-6"><path class="cls-7" d="M969.07,724.16a6,6,0,1,0-6-6,6,6,0,0,0,6,6" transform="translate(505 -451.83)"/></g><line class="cls-68" x1="1258.43" y1="258.58" x2="1363.04" y2="258.58"/><line class="cls-69" x1="1376.73" y1="251.04" x2="1395.58" y2="232.19"/><line class="cls-70" x1="1410.66" y1="228.42" x2="1472.89" y2="228.42"/><path class="cls-11" d="M973.54,680.25h0m-79.19,0h0m-30.16,30.16h0m-123.06,0h0" transform="translate(505 -451.83)"/><g class="cls-6"><path class="cls-7" d="M973.54,686.25a6,6,0,1,0-6-6,6,6,0,0,0,6,6" transform="translate(505 -451.83)"/></g><line class="cls-71" x1="1239.5" y1="371.6" x2="1239.5" y2="378.33"/><line class="cls-72" x1="1247.74" y1="363.36" x2="1260.11" y2="351"/><line class="cls-73" x1="1276.31" y1="346.88" x2="1282.36" y2="346.88"/><path class="cls-11" d="M783.4,798.71h0m-24.17,0h0M734.5,823.43h0m0,13.47h0" transform="translate(505 -451.83)"/><g class="cls-6"><path class="cls-7" d="M783.4,804.71a6,6,0,1,0-6-6,6,6,0,0,0,6,6" transform="translate(505 -451.83)"/><path class="cls-74" d="M604,723.33l-7.33,17q52.82,12.88,84.45,25.78L689,746.77Q653.88,733.66,604,723.33Zm5.42-40.07-6.16,17.44a605.65,605.65,0,0,1,73.9,23.07l6.89-19.63A589.36,589.36,0,0,0,609.43,683.26Zm-1-38.23-5.71,17.73a642.54,642.54,0,0,1,74,19.63l6.16-19.34A558.7,558.7,0,0,0,608.47,645ZM560,661.55a6.81,6.81,0,0,1-2.23-5.31,7.09,7.09,0,0,1,2.12-5.35,6.94,6.94,0,0,1,5-2,7.82,7.82,0,0,1,5.13,1.9,6.62,6.62,0,0,1,2.27,5.35q0,7.47-7.25,7.47A7.31,7.31,0,0,1,560,661.55Zm-112-.19v19.41h84q-5.35,29.37-21.43,45.78t-53.28,27l9.45,19q42.33-12.75,62.11-35.2T555,671a17.81,17.81,0,0,0,22.93-2.12,17.27,17.27,0,0,0,5-12.16,18.29,18.29,0,0,0-5-12.6,16.13,16.13,0,0,0-12.49-5.57,17.49,17.49,0,0,0-12.81,5.24A17.93,17.93,0,0,0,547.33,657a22.15,22.15,0,0,0,.44,4.32Zm-81.36,57.5a239.25,239.25,0,0,0-18.23-33l-15.75,7.54a271.28,271.28,0,0,1,18.09,34.21Zm41.9-37.21q-3.22,37.8-17.8,52.11T350,754.09l10.32,17.58q33.33-10,48.78-29.92t18.31-58.49ZM395.08,709.7q-10.32-21.83-18.6-31.2l-15.31,7.33a154.64,154.64,0,0,1,18.9,32.59Z" transform="translate(505 -451.83)"/><path class="cls-75" d="M604,723.33l-7.33,17q52.82,12.88,84.45,25.78L689,746.77Q653.88,733.66,604,723.33Zm5.42-40.07-6.16,17.44a605.65,605.65,0,0,1,73.9,23.07l6.89-19.63A589.36,589.36,0,0,0,609.43,683.26Zm-1-38.23-5.71,17.73a642.54,642.54,0,0,1,74,19.63l6.16-19.34A558.7,558.7,0,0,0,608.47,645ZM560,661.55a6.81,6.81,0,0,1-2.23-5.31,7.09,7.09,0,0,1,2.12-5.35,6.94,6.94,0,0,1,5-2,7.82,7.82,0,0,1,5.13,1.9,6.62,6.62,0,0,1,2.27,5.35q0,7.47-7.25,7.47A7.31,7.31,0,0,1,560,661.55Zm-112-.19v19.41h84q-5.35,29.37-21.43,45.78t-53.28,27l9.45,19q42.33-12.75,62.11-35.2T555,671a17.81,17.81,0,0,0,22.93-2.12,17.27,17.27,0,0,0,5-12.16,18.29,18.29,0,0,0-5-12.6,16.13,16.13,0,0,0-12.49-5.57,17.49,17.49,0,0,0-12.81,5.24A17.93,17.93,0,0,0,547.33,657a22.15,22.15,0,0,0,.44,4.32Zm-81.36,57.5a239.25,239.25,0,0,0-18.23-33l-15.75,7.54a271.28,271.28,0,0,1,18.09,34.21Zm41.9-37.21q-3.22,37.8-17.8,52.11T350,754.09l10.32,17.58q33.33-10,48.78-29.92t18.31-58.49ZM395.08,709.7q-10.32-21.83-18.6-31.2l-15.31,7.33a154.64,154.64,0,0,1,18.9,32.59Z" transform="translate(505 -451.83)"/><path class="cls-76" d="M604,723.33l-7.33,17q52.82,12.88,84.45,25.78L689,746.77Q653.88,733.66,604,723.33Zm5.42-40.07-6.16,17.44a605.65,605.65,0,0,1,73.9,23.07l6.89-19.63A589.36,589.36,0,0,0,609.43,683.26Zm-1-38.23-5.71,17.73a642.54,642.54,0,0,1,74,19.63l6.16-19.34A558.7,558.7,0,0,0,608.47,645ZM560,661.55a6.81,6.81,0,0,1-2.23-5.31,7.09,7.09,0,0,1,2.12-5.35,6.94,6.94,0,0,1,5-2,7.82,7.82,0,0,1,5.13,1.9,6.62,6.62,0,0,1,2.27,5.35q0,7.47-7.25,7.47A7.31,7.31,0,0,1,560,661.55Zm-112-.19v19.41h84q-5.35,29.37-21.43,45.78t-53.28,27l9.45,19q42.33-12.75,62.11-35.2T555,671a17.81,17.81,0,0,0,22.93-2.12,17.27,17.27,0,0,0,5-12.16,18.29,18.29,0,0,0-5-12.6,16.13,16.13,0,0,0-12.49-5.57,17.49,17.49,0,0,0-12.81,5.24A17.93,17.93,0,0,0,547.33,657a22.15,22.15,0,0,0,.44,4.32Zm-81.36,57.5a239.25,239.25,0,0,0-18.23-33l-15.75,7.54a271.28,271.28,0,0,1,18.09,34.21Zm41.9-37.21q-3.22,37.8-17.8,52.11T350,754.09l10.32,17.58q33.33-10,48.78-29.92t18.31-58.49ZM395.08,709.7q-10.32-21.83-18.6-31.2l-15.31,7.33a154.64,154.64,0,0,1,18.9,32.59Z" transform="translate(505 -451.83)"/></g><g class="cls-77"><rect class="cls-78" x="837.68" y="186.68" width="356.36" height="134.03"/></g><g class="cls-6"><path class="cls-74" d="M758.35,678.37c.16,17.18.07,81.57-22.06,96.71-12.61,8.95-57.09,9.26-57.09,9.26H381.68l-24.1,21.56H683.87c69,0,87.77-2.41,95.15-81.79a435.34,435.34,0,0,0,1.81-45.74Zm79.91-29.45H702.19v20.83H810.38A169.4,169.4,0,0,1,781.78,699l15.1,16.36q21-16.05,41.38-45.57ZM272.08,703.53l-3.23,10.35,1.23,5c17.16,10,40.61,24.66,53.64,34.18l12.47-20.27c-14.94-9.41-40.45-23.25-56-30.8Zm31.06-39.85H275V636.07H252.78v27.61H208.7v20.91h65.05q-26.13,27.69-80.22,49.48l11.36,19.47a251.64,251.64,0,0,0,48.05-24V894h22.24V713.48q19-15.79,28-28.89Z" transform="translate(505 -451.83)"/><path class="cls-75" d="M758.16,678.55c.16,17.15.07,81.4-22,96.5-12.59,8.94-57,9.25-57,9.25H381.9l-24.08,21.51H683.76c68.94,0,87.67-2.4,95-81.61a430.93,430.93,0,0,0,1.81-45.65ZM838,649.17H702.06V670H810.13a168.82,168.82,0,0,1-28.56,29.15l15.07,16.32q21-16,41.34-45.47Zm-565.56,54.5L269.19,714l1.23,5C287.56,729,311,743.59,324,753.09l12.46-20.23c-14.92-9.39-40.4-23.2-55.9-30.74Zm31-39.77H275.36V636.35H253.14V663.9h-44v20.87h65Q248,712.4,194,734.14l11.35,19.43a251.57,251.57,0,0,0,48-24V893.67h22.22V713.59q19-15.76,27.93-28.82Z" transform="translate(505 -451.83)"/><path class="cls-76" d="M758.1,678.61c.16,17.13.07,81.35-22,96.44-12.59,8.93-57,9.24-57,9.24H382l-24.07,21.49H683.73c68.92,0,87.64-2.4,95-81.55a430.41,430.41,0,0,0,1.81-45.62Zm79.8-29.37H702V670h108a169.06,169.06,0,0,1-28.56,29.13l15.08,16.31q21-16,41.32-45.44ZM272.51,703.7,269.29,714l1.23,5c17.13,10,40.55,24.59,53.56,34.09l12.45-20.22c-14.91-9.39-40.39-23.18-55.88-30.72Zm31-39.74H275.45V636.43H253.24V664h-44v20.85h65q-26.08,27.63-80.11,49.35l11.34,19.41a251.1,251.1,0,0,0,48-24v164h22.21v-180q19-15.75,27.92-28.81Z" transform="translate(505 -451.83)"/></g><g class="cls-79"><rect class="cls-80" x="700.3" y="185.43" width="641.76" height="255.49"/></g><polyline class="cls-81" points="1105.77 222.47 1123.01 224.76 1104.87 221.08"/></svg>