<svg id="Calque_1" data-name="Calque 1" xmlns="http://www.w3.org/2000/svg" viewBox="0 0 1162.67 559.81"><defs><style>.cls-1{fill:#213265;}.cls-2{fill:none;stroke:#fff;stroke-linecap:round;stroke-miterlimit:10;stroke-width:45px;}.cls-3{fill:#fff;}</style></defs><title>click me</title><circle class="cls-1" cx="586" cy="406.56" r="153.25"/><polyline class="cls-2" points="479.04 352.95 586.52 460.44 693.23 353.74"/><path class="cls-3" d="M9.93,553.55q-21.54,0-39.24-7.08A83.37,83.37,0,0,1-59.7,525.82q-12.69-13.58-19.62-33.49t-6.93-45.58q0-25.67,7.82-45.58t21.09-33.49a89.32,89.32,0,0,1,31-20.65A100.69,100.69,0,0,1,11.4,340a134.25,134.25,0,0,1,22.87,1.77A140.74,140.74,0,0,1,52,345.85a86.2,86.2,0,0,1,12.24,4.72,73.65,73.65,0,0,1,6.49,3.54l-8.26,23.6a46.19,46.19,0,0,0-7.67-3.83q-5-2.06-11.36-4.13a102.42,102.42,0,0,0-13.87-3.39A86.73,86.73,0,0,0,14.35,365a73.12,73.12,0,0,0-29.21,5.6A60.42,60.42,0,0,0-37,386.86a73.32,73.32,0,0,0-14,25.82,111.56,111.56,0,0,0-4.86,34.07,121.77,121.77,0,0,0,4.27,33.34A72.88,72.88,0,0,0-38.75,505.9a57.43,57.43,0,0,0,21.39,16.67q12.83,5.91,29.94,5.9,19.77,0,32.75-4.13A144.51,144.51,0,0,0,64.8,517l7.38,23.6a42.17,42.17,0,0,1-7.38,3.69,102.53,102.53,0,0,1-13.28,4.28,166.5,166.5,0,0,1-18.58,3.53A166.59,166.59,0,0,1,9.93,553.55Z" transform="translate(86.25 -320.19)"/><path class="cls-3" d="M149.18,552.07q-25.38-.59-36-10.91T102.56,509V324.91L130,320.19V504.58a44.33,44.33,0,0,0,1.18,11.21,15.23,15.23,0,0,0,3.84,7.08,16.55,16.55,0,0,0,7.08,4A72.27,72.27,0,0,0,153,529.06Z" transform="translate(86.25 -320.19)"/><path class="cls-3" d="M197.26,368a17.56,17.56,0,0,1-12.53-4.87q-5.17-4.86-5.17-13.13t5.17-13.13a18.6,18.6,0,0,1,25.07,0Q215,341.73,215,350t-5.17,13.13A17.59,17.59,0,0,1,197.26,368Zm13.87,181.15H183.69V395.71h27.44Z" transform="translate(86.25 -320.19)"/><path class="cls-3" d="M325,552.67q-18.58,0-32.6-5.91a65.49,65.49,0,0,1-23.61-16.52A68.52,68.52,0,0,1,254.5,505a104.59,104.59,0,0,1-4.72-32.31,97.73,97.73,0,0,1,5.16-32.45,76.71,76.71,0,0,1,14.6-25.52,65.57,65.57,0,0,1,23.16-16.82,75.13,75.13,0,0,1,30.54-6,122.1,122.1,0,0,1,20.65,1.77,95.61,95.61,0,0,1,19.77,5.6l-6.2,23.31a66.35,66.35,0,0,0-14.31-4.72,80.83,80.83,0,0,0-17.26-1.77q-23,0-35.25,14.45t-12.25,42.19a86.1,86.1,0,0,0,2.81,22.72,46.53,46.53,0,0,0,8.85,17.7,39.44,39.44,0,0,0,15.49,11.36q9.43,4,23,4a87,87,0,0,0,19.76-2.06A72.23,72.23,0,0,0,362.18,522L366,545a28.87,28.87,0,0,1-6.79,2.81,97.14,97.14,0,0,1-10,2.36q-5.61,1-11.95,1.77A106.46,106.46,0,0,1,325,552.67Z" transform="translate(86.25 -320.19)"/><path class="cls-3" d="M451,464.75a184.81,184.81,0,0,1,18.74,16.81q9.87,10,19.47,21.69t18.14,23.6a264.15,264.15,0,0,1,14.46,22.28H489.63A241.63,241.63,0,0,0,475.32,528q-8.11-10.77-17-20.65a241.42,241.42,0,0,0-18-18.15A163.26,163.26,0,0,0,423,475.37v73.76H395.52V324.91L423,320.19V460l15.64-15.64q8.55-8.55,16.82-17.41T471,410q7.38-8.11,12.69-14.31h32.16q-6.79,7.38-14.75,16.23t-16.53,17.85q-8.55,9-17.25,18T451,464.75Z" transform="translate(86.25 -320.19)"/><path class="cls-3" d="M711.19,520.8q-3-7.08-7.82-18T692.89,479.2q-5.6-12.68-11.94-26.11t-12-25.37q-5.61-11.94-10.48-21.39t-7.81-14.45q-3.26,34.81-5.31,75.37t-3.54,81.88h-28q1.17-26.57,2.65-53.55t3.4-53.11q1.9-26.1,4.13-50.89t4.87-46.91H654q8,13,17.11,30.68t18.29,37Q698.5,431.7,707.06,451t15.63,35.25q7.08-15.93,15.64-35.25T756,412.38q9.15-19.32,18.29-37t17.11-30.68h25.08q10,98.83,15,204.46h-28Q802,507.82,800,467.25t-5.31-75.37q-3,5-7.82,14.45t-10.47,21.39q-5.61,12-11.95,25.37t-12,26.11q-5.61,12.69-10.47,23.61t-7.82,18Z" transform="translate(86.25 -320.19)"/><path class="cls-3" d="M866.07,472.71q0-20.35,5.9-35.55a74.23,74.23,0,0,1,15.64-25.22A63.51,63.51,0,0,1,910,396.89a70.07,70.07,0,0,1,26-5q31,0,47.5,19.32T1000,470.06v4.57a43.07,43.07,0,0,1-.29,5.16h-105q1.77,23.91,13.86,36.29t37.77,12.39q14.45,0,24.34-2.51a87.59,87.59,0,0,0,14.9-4.86l3.83,23q-5,2.65-17.55,5.6a124.64,124.64,0,0,1-28.47,3q-20.07,0-34.67-6a64.66,64.66,0,0,1-24-16.67,67.94,67.94,0,0,1-14-25.23A106.59,106.59,0,0,1,866.07,472.71Zm105.32-15q.3-18.59-9.29-30.54t-26.4-11.95A36.13,36.13,0,0,0,919,418.87a39.48,39.48,0,0,0-12.25,9.59A44.13,44.13,0,0,0,899,442a66.5,66.5,0,0,0-3.69,15.64Z" transform="translate(86.25 -320.19)"/><path class="cls-3" d="M1076.42,533.19a20.06,20.06,0,0,1-5.31,13.87q-5.31,5.9-14.46,5.9t-14.45-5.9a20.76,20.76,0,0,1,0-27.73q5.31-5.91,14.45-5.9t14.46,5.9A20,20,0,0,1,1076.42,533.19Zm-5-133.05q0,24.78-1.78,45t-4.42,40.27H1048.1q-2.65-20.06-4.43-40.27t-1.77-45V344.67h29.51Z" transform="translate(86.25 -320.19)"/></svg>