<svg id="Calque_1" data-name="Calque 1" xmlns="http://www.w3.org/2000/svg" viewBox="0 0 45 45"><defs><style>.cls-1{fill:#fff;}.cls-2{fill:none;stroke:#fff;stroke-linecap:round;stroke-miterlimit:10;stroke-width:4px;}</style></defs><title>commands_icon</title><path class="cls-1" d="M199.5,232.5a8,8,0,0,1,8,8v21a8,8,0,0,1-8,8h-21a8,8,0,0,1-8-8v-21a8,8,0,0,1,8-8h21m0-4h-21a12,12,0,0,0-12,12v21a12,12,0,0,0,12,12h21a12,12,0,0,0,12-12v-21a12,12,0,0,0-12-12Z" transform="translate(-166.5 -228.5)"/><polyline class="cls-2" points="8.5 9.5 21.5 22.5 8.5 35.5"/><line class="cls-2" x1="22.5" y1="35.5" x2="36.5" y2="35.5"/></svg>