<svg id="Calque_1" data-name="Calque 1" xmlns="http://www.w3.org/2000/svg" viewBox="0 0 175 199.44"><defs><style>.cls-1{fill:#fff;}</style></defs><title>discord_icon</title><path class="cls-1" d="M249.78,222.07c-5.66,0-10.25,5-10.25,11.07s4.59,11.07,10.25,11.07,10.23-5,10.23-11.07-4.58-11.07-10.23-11.07" transform="translate(-180 -138)"/><path class="cls-1" d="M286.23,222.07c-5.66,0-10.24,5-10.24,11.07s4.58,11.07,10.24,11.07,10.24-5,10.24-11.07-4.58-11.07-10.24-11.07" transform="translate(-180 -138)"/><path class="cls-1" d="M335,138H200.47A20.52,20.52,0,0,0,180,158.58V293.42A20.52,20.52,0,0,0,200.47,314H313.9l-5.3-18.42,12.78,11.85,12.06,11.18L355,337.44V158.58A20.52,20.52,0,0,0,334.53,138M296.25,268.79s-3.56-4.32-6.55-8.11c13.13-3.68,18.08-11.9,18.08-11.9a60.71,60.71,0,0,1-11.53,5.93A71.56,71.56,0,0,1,281.71,259a70.7,70.7,0,0,1-25.92-.05,77,77,0,0,1-14.68-4.3,57.85,57.85,0,0,1-7.35-3.45q-.49-.26-.93-.51l-.44-.25c-1.78-1-2.75-1.7-2.75-1.7s4.8,8,17.52,11.75c-3,3.82-6.67,8.26-6.67,8.26C218.4,268.12,210,253.54,210,253.54c0-32.18,14.39-58.27,14.39-58.27,14.41-10.84,28.06-10.5,28.06-10.5l1,1.18c-18,5.17-26.26,13.14-26.26,13.14a59.93,59.93,0,0,1,5.94-2.86,76.41,76.41,0,0,1,22.7-6.33l1.68-.23a84.92,84.92,0,0,1,20.23-.18,81.28,81.28,0,0,1,30.13,9.6s-7.86-7.54-24.92-12.71l1.4-1.61s13.66-.34,28.06,10.5c0,0,14.4,26.09,14.4,58.27,0,0-8.45,14.58-30.54,15.25" transform="translate(-180 -138)"/></svg>