<svg id="Calque_1" data-name="Calque 1" xmlns="http://www.w3.org/2000/svg" viewBox="0 0 87.95 110.05"><defs><style>.cls-1{fill:#fff;}</style></defs><title>embed_icon</title><path class="cls-1" d="M216.67,306c-5.35-1.4-8-4.28-9.67-9.57V279.69c0-24,.1-48-.07-72a12.07,12.07,0,0,1,11.67-11.76c16.32.18,32.64.06,48.89.06l27.39,27.39v73.37c-1.34,4.69-4,7.78-9.52,9.23Zm34.08-11c1.18-4,1.52-7.81,2.46-11.4s1.26-7.35,2.45-10.94a73.21,73.21,0,0,0,2.16-10.56c.65-3.73,1.59-7.4,2.19-11.14s1.31-7.26,1.95-10.78H251.17c-1.09,3.81-1.46,7.63-2.4,11.22s-1.25,7.35-2.44,10.94a73.07,73.07,0,0,0-2.16,10.57c-.65,3.73-1.59,7.39-2.19,11.13s-1.31,7.26-2,11Zm-33.08-27.47,11,16.47c1.69,0,3.66,0,5.64,0s3.83.27,5.68-.26l-10.81-16.17,10.93-16.43H228.55ZM273.53,284c3.44-5.93,7.58-11.06,10.71-16.63l-10.78-16.14H262l10.85,16.34L261.93,284Zm11.73-55.19-7.9-7.9c-2.46-2.46-4.84-5-7.41-7.36s-4.23-5.27-7.8-6.75v22Z" transform="translate(-206.93 -195.94)"/></svg>