<svg id="Calque_2" data-name="Calque 2" xmlns="http://www.w3.org/2000/svg" viewBox="0 0 477.02 84"><defs><style>.cls-1{fill:#b388bd;}.cls-2{fill:#5e6aad;}.cls-3,.cls-5,.cls-6,.cls-7{fill:none;}.cls-3,.cls-7{stroke:#5e6aaf;}.cls-4{fill:#213265;}.cls-5,.cls-6{stroke:#b388bd;}.cls-6,.cls-7{stroke-width:0.5px;}.cls-8{fill:#b187bd;}.cls-9{fill:#5e6aaf;}</style></defs><title>header_right</title><polygon class="cls-1" points="477.02 68.41 428.62 68.41 396.45 32.02 2.02 32.66 2.02 0 477.02 0 477.02 68.41"/><polygon class="cls-2" points="477.02 0 467.6 64.47 418.7 64.47 386.81 32.58 2.02 32.58 2.02 0 477.02 0"/><line class="cls-3" x1="389.64" y1="34.22" x2="388.55" y2="35.32"/><polygon class="cls-4" points="477.02 66.11 424.65 65.86 392.76 33.97 0 33.97 0 0 477.02 0 477.02 66.11"/><polygon class="cls-1" points="399.28 23.98 432.16 56.87 470.15 56.87 470.15 25.89 451.44 7.18 310.27 7.18 327.08 23.98 399.28 23.98"/><polygon class="cls-1" points="310.32 23.98 293.51 7.18 268.89 7.18 285.69 23.98 310.32 23.98"/><polygon class="cls-1" points="268.89 23.98 252.08 7.18 238.8 7.18 255.6 23.98 268.89 23.98"/><polygon class="cls-1" points="238.79 23.98 221.98 7.18 220.04 7.18 236.84 23.98 238.79 23.98"/><line class="cls-5" x1="473.97" y1="67.95" x2="473.97" y2="76.76"/><circle class="cls-6" cx="473.97" cy="77.76" r="1"/><polyline class="cls-5" points="465.47 67.39 465.47 75.04 467.6 77.17 467.6 81.15"/><circle class="cls-6" cx="467.6" cy="82.15" r="1"/><polyline class="cls-5" points="453.85 67.39 453.85 76.31 456.29 78.76"/><circle class="cls-6" cx="457" cy="79.47" r="1"/><line class="cls-5" x1="459.8" y1="67.39" x2="459.8" y2="72.08"/><circle class="cls-6" cx="459.8" cy="73.08" r="1"/><polyline class="cls-5" points="451.16 67.39 451.16 78.58 449.7 80.03"/><circle class="cls-6" cx="449" cy="80.74" r="1"/><polyline class="cls-5" points="444.92 67.39 444.92 72.2 446.58 73.87"/><circle class="cls-6" cx="447.29" cy="74.58" r="1"/><polyline class="cls-5" points="437.55 67.95 437.55 76.31 435.28 78.58 435.28 81.75"/><circle class="cls-6" cx="435.28" cy="82.75" r="1"/><line class="cls-5" x1="430.6" y1="66.99" x2="430.6" y2="72.08"/><circle class="cls-6" cx="430.6" cy="73.08" r="1"/><polyline class="cls-5" points="428.99 67.95 426.83 70.11 425.59 70.11"/><circle class="cls-6" cx="424.59" cy="70.11" r="1"/><line class="cls-3" x1="420.4" y1="63.31" x2="420.4" y2="65.45"/><circle class="cls-7" cx="420.4" cy="66.45" r="1"/><polyline class="cls-3" points="416.79 61.22 416.79 65.76 414.73 67.81 414.73 69.9"/><circle class="cls-7" cx="414.73" cy="70.9" r="1"/><polyline class="cls-3" points="414.23 57.96 410.69 61.5 406.3 61.5 404.35 63.45"/><circle class="cls-7" cx="403.64" cy="64.15" r="1"/><circle class="cls-7" cx="411.76" cy="63.74" r="1"/><polyline class="cls-3" points="406.51 50.52 402.12 54.91 402.12 59.52 400.8 60.83"/><circle class="cls-7" cx="400.09" cy="61.54" r="1"/><line class="cls-3" x1="410.7" y1="54.2" x2="408.12" y2="56.79"/><circle class="cls-7" cx="407.41" cy="57.5" r="1"/><polyline class="cls-3" points="401.27 46.41 395.74 51.94 395.74 57.78"/><circle class="cls-7" cx="395.74" cy="58.78" r="1"/><polyline class="cls-3" points="397.58 41.73 394.32 44.99 389.64 44.99 386.81 47.83 386.81 49.94"/><circle class="cls-7" cx="386.81" cy="50.94" r="1"/><line class="cls-3" x1="395.24" y1="39.75" x2="393.51" y2="41.48"/><circle class="cls-7" cx="392.8" cy="42.19" r="1"/><line class="cls-3" x1="399.57" y1="43.86" x2="394.64" y2="48.78"/><circle class="cls-7" cx="393.93" cy="49.49" r="1"/><polyline class="cls-3" points="392.9 36.35 389.36 39.89 383.83 39.89 382.91 40.81"/><circle class="cls-7" cx="382.2" cy="41.52" r="1"/><circle class="cls-7" cx="387.84" cy="36.03" r="1"/><polygon class="cls-8" points="470.15 22.24 466.39 18.49 466.39 10.69 459.24 10.69 455.72 7.18 470.15 7.18 470.15 22.24"/><polygon class="cls-9" points="459.8 12.05 464.99 12.05 464.99 17.3 459.8 12.05"/><polygon class="cls-2" points="444.07 12.96 460.83 29.54 460.83 48.82 436.04 48.82 404.52 17.3 392.68 17.3 388.29 12.91 444.07 12.96"/><polygon class="cls-2" points="388.29 17.28 383.92 12.91 350.13 12.91 354.51 17.28 388.29 17.28"/><polygon class="cls-2" points="350.14 17.28 345.77 12.91 333.01 12.91 337.38 17.28 350.14 17.28"/><polygon class="cls-2" points="333.05 17.28 328.67 12.91 323.65 12.91 328.03 17.28 333.05 17.28"/></svg>