<svg id="Calque_2" data-name="Calque 2" xmlns="http://www.w3.org/2000/svg" viewBox="0 0 477.02 84"><defs><style>.cls-1{fill:#b388bd;}.cls-2{fill:#5e6aad;}.cls-3,.cls-5,.cls-6,.cls-7{fill:none;}.cls-3,.cls-7{stroke:#5e6aaf;}.cls-4{fill:#213265;}.cls-5,.cls-6{stroke:#b388bd;}.cls-6,.cls-7{stroke-width:0.5px;}.cls-8{fill:#b187bd;}.cls-9{fill:#5e6aaf;}</style></defs><title>header_left</title><polygon class="cls-1" points="0 68.41 48.4 68.41 80.58 32.02 475 32.66 475 0 0 0 0 68.41"/><polygon class="cls-2" points="0 0 9.43 64.47 58.32 64.47 90.21 32.58 475 32.58 475 0 0 0"/><line class="cls-3" x1="87.38" y1="34.22" x2="88.48" y2="35.32"/><polygon class="cls-4" points="0 66.11 52.37 65.86 84.26 33.97 477.02 33.97 477.02 0 0 0 0 66.11"/><polygon class="cls-1" points="77.74 23.98 44.86 56.87 6.87 56.87 6.87 25.89 25.58 7.18 166.75 7.18 149.94 23.98 77.74 23.98"/><polygon class="cls-1" points="166.71 23.98 183.51 7.18 208.13 7.18 191.33 23.98 166.71 23.98"/><polygon class="cls-1" points="208.13 23.98 224.94 7.18 238.22 7.18 221.42 23.98 208.13 23.98"/><polygon class="cls-1" points="238.23 23.98 255.04 7.18 256.99 7.18 240.18 23.98 238.23 23.98"/><line class="cls-5" x1="3.05" y1="67.95" x2="3.05" y2="76.76"/><circle class="cls-6" cx="3.05" cy="77.76" r="1"/><polyline class="cls-5" points="11.55 67.39 11.55 75.04 9.43 77.17 9.43 81.15"/><circle class="cls-6" cx="9.43" cy="82.15" r="1"/><polyline class="cls-5" points="23.17 67.39 23.17 76.31 20.73 78.76"/><circle class="cls-6" cx="20.02" cy="79.47" r="1"/><line class="cls-5" x1="17.22" y1="67.39" x2="17.22" y2="72.08"/><circle class="cls-6" cx="17.22" cy="73.08" r="1"/><polyline class="cls-5" points="25.87 67.39 25.87 78.58 27.32 80.03"/><circle class="cls-6" cx="28.02" cy="80.74" r="1"/><polyline class="cls-5" points="32.1 67.39 32.1 72.2 30.44 73.87"/><circle class="cls-6" cx="29.73" cy="74.58" r="1"/><polyline class="cls-5" points="39.47 67.95 39.47 76.31 41.74 78.58 41.74 81.75"/><circle class="cls-6" cx="41.74" cy="82.75" r="1"/><line class="cls-5" x1="46.42" y1="66.99" x2="46.42" y2="72.08"/><circle class="cls-6" cx="46.42" cy="73.08" r="1"/><polyline class="cls-5" points="48.03 67.95 50.19 70.11 51.44 70.11"/><circle class="cls-6" cx="52.43" cy="70.11" r="1"/><line class="cls-3" x1="56.62" y1="63.31" x2="56.62" y2="65.45"/><circle class="cls-7" cx="56.62" cy="66.45" r="1"/><polyline class="cls-3" points="60.24 61.22 60.24 65.76 62.29 67.81 62.29 69.9"/><circle class="cls-7" cx="62.29" cy="70.9" r="1"/><polyline class="cls-3" points="62.79 57.96 66.33 61.5 70.72 61.5 72.67 63.45"/><circle class="cls-7" cx="73.38" cy="64.15" r="1"/><circle class="cls-7" cx="65.26" cy="63.74" r="1"/><polyline class="cls-3" points="70.51 50.52 74.91 54.91 74.91 59.52 76.22 60.83"/><circle class="cls-7" cx="76.93" cy="61.54" r="1"/><line class="cls-3" x1="66.32" y1="54.2" x2="68.9" y2="56.79"/><circle class="cls-7" cx="69.61" cy="57.5" r="1"/><polyline class="cls-3" points="75.76 46.41 81.28 51.94 81.28 57.78"/><circle class="cls-7" cx="81.28" cy="58.78" r="1"/><polyline class="cls-3" points="79.44 41.73 82.7 44.99 87.38 44.99 90.21 47.83 90.21 49.94"/><circle class="cls-7" cx="90.21" cy="50.94" r="1"/><line class="cls-3" x1="81.78" y1="39.75" x2="83.52" y2="41.48"/><circle class="cls-7" cx="84.22" cy="42.19" r="1"/><line class="cls-3" x1="77.46" y1="43.86" x2="82.38" y2="48.78"/><circle class="cls-7" cx="83.09" cy="49.49" r="1"/><polyline class="cls-3" points="84.12 36.35 87.66 39.89 93.19 39.89 94.11 40.81"/><circle class="cls-7" cx="94.82" cy="41.52" r="1"/><circle class="cls-7" cx="89.18" cy="36.03" r="1"/><polygon class="cls-8" points="6.87 22.24 10.63 18.49 10.63 10.69 17.79 10.69 21.3 7.18 6.87 7.18 6.87 22.24"/><polygon class="cls-9" points="17.22 12.05 12.03 12.05 12.03 17.3 17.22 12.05"/><polygon class="cls-2" points="32.95 12.96 16.19 29.54 16.19 48.82 40.98 48.82 72.5 17.3 84.34 17.3 88.73 12.91 32.95 12.96"/><polygon class="cls-2" points="88.73 17.28 93.11 12.91 126.89 12.91 122.52 17.28 88.73 17.28"/><polygon class="cls-2" points="126.88 17.28 131.25 12.91 144.01 12.91 139.64 17.28 126.88 17.28"/><polygon class="cls-2" points="143.97 17.28 148.35 12.91 153.37 12.91 148.99 17.28 143.97 17.28"/></svg>